<svg width="219" height="228" viewBox="0 0 219 228" fill="none" xmlns="http://www.w3.org/2000/svg">
<g opacity="0.42">
<rect x="32" y="31" width="5" height="5" rx="2.5" fill="url(#paint0_linear_21_234)"/>
<rect x="56" y="31" width="5" height="5" rx="2.5" fill="url(#paint1_linear_21_234)"/>
<rect x="80" y="31" width="5" height="5" rx="2.5" fill="url(#paint2_linear_21_234)"/>
<rect x="104" y="31" width="5" height="5" rx="2.5" fill="url(#paint3_linear_21_234)"/>
<rect x="128" y="31" width="5" height="5" rx="2.5" fill="url(#paint4_linear_21_234)"/>
<rect x="128" y="31" width="5" height="5" rx="2.5" fill="url(#paint5_linear_21_234)"/>
<rect x="152" y="31" width="5" height="5" rx="2.5" fill="url(#paint6_linear_21_234)"/>
<rect x="152" y="31" width="5" height="5" rx="2.5" fill="url(#paint7_linear_21_234)"/>
<rect x="175" y="31" width="5" height="5" rx="2.5" fill="url(#paint8_linear_21_234)"/>
<rect x="175" y="31" width="5" height="5" rx="2.5" fill="url(#paint9_linear_21_234)"/>
<rect x="32" y="56" width="5" height="5" rx="2.5" fill="url(#paint10_linear_21_234)"/>
<rect x="56" y="56" width="5" height="5" rx="2.5" fill="url(#paint11_linear_21_234)"/>
<rect x="80" y="56" width="5" height="5" rx="2.5" fill="url(#paint12_linear_21_234)"/>
<rect x="104" y="56" width="5" height="5" rx="2.5" fill="url(#paint13_linear_21_234)"/>
<rect x="128" y="56" width="5" height="5" rx="2.5" fill="url(#paint14_linear_21_234)"/>
<rect x="152" y="56" width="5" height="5" rx="2.5" fill="url(#paint15_linear_21_234)"/>
<rect x="175" y="56" width="5" height="5" rx="2.5" fill="url(#paint16_linear_21_234)"/>
<rect x="175" y="56" width="5" height="5" rx="2.5" fill="url(#paint17_linear_21_234)"/>
<rect x="32" y="77" width="5" height="5" rx="2.5" fill="url(#paint18_linear_21_234)"/>
<rect x="56" y="77" width="5" height="5" rx="2.5" fill="url(#paint19_linear_21_234)"/>
<rect x="80" y="77" width="5" height="5" rx="2.5" fill="url(#paint20_linear_21_234)"/>
<rect x="104" y="77" width="5" height="5" rx="2.5" fill="url(#paint21_linear_21_234)"/>
<rect x="128" y="77" width="5" height="5" rx="2.5" fill="url(#paint22_linear_21_234)"/>
<rect x="152" y="77" width="5" height="5" rx="2.5" fill="url(#paint23_linear_21_234)"/>
<rect x="175" y="77" width="5" height="5" rx="2.5" fill="url(#paint24_linear_21_234)"/>
<rect x="175" y="77" width="5" height="5" rx="2.5" fill="url(#paint25_linear_21_234)"/>
<rect x="32" y="103" width="5" height="5" rx="2.5" fill="url(#paint26_linear_21_234)"/>
<rect x="56" y="103" width="5" height="5" rx="2.5" fill="url(#paint27_linear_21_234)"/>
<rect x="80" y="103" width="5" height="5" rx="2.5" fill="url(#paint28_linear_21_234)"/>
<rect x="104" y="103" width="5" height="5" rx="2.5" fill="url(#paint29_linear_21_234)"/>
<rect x="128" y="103" width="5" height="5" rx="2.5" fill="url(#paint30_linear_21_234)"/>
<rect x="152" y="103" width="5" height="5" rx="2.5" fill="url(#paint31_linear_21_234)"/>
<rect x="175" y="103" width="5" height="5" rx="2.5" fill="url(#paint32_linear_21_234)"/>
<rect x="175" y="103" width="5" height="5" rx="2.5" fill="url(#paint33_linear_21_234)"/>
<rect x="32" y="126" width="5" height="5" rx="2.5" fill="url(#paint34_linear_21_234)"/>
<rect x="56" y="126" width="5" height="5" rx="2.5" fill="url(#paint35_linear_21_234)"/>
<rect x="80" y="126" width="5" height="5" rx="2.5" fill="url(#paint36_linear_21_234)"/>
<rect x="104" y="126" width="5" height="5" rx="2.5" fill="url(#paint37_linear_21_234)"/>
<rect x="128" y="126" width="5" height="5" rx="2.5" fill="url(#paint38_linear_21_234)"/>
<rect x="152" y="126" width="5" height="5" rx="2.5" fill="url(#paint39_linear_21_234)"/>
<rect x="175" y="126" width="5" height="5" rx="2.5" fill="url(#paint40_linear_21_234)"/>
<rect x="175" y="126" width="5" height="5" rx="2.5" fill="url(#paint41_linear_21_234)"/>
<rect x="32" y="149" width="5" height="5" rx="2.5" fill="url(#paint42_linear_21_234)"/>
<rect x="56" y="149" width="5" height="5" rx="2.5" fill="url(#paint43_linear_21_234)"/>
<rect x="80" y="149" width="5" height="5" rx="2.5" fill="url(#paint44_linear_21_234)"/>
<rect x="104" y="149" width="5" height="5" rx="2.5" fill="url(#paint45_linear_21_234)"/>
<rect x="128" y="149" width="5" height="5" rx="2.5" fill="url(#paint46_linear_21_234)"/>
<rect x="152" y="149" width="5" height="5" rx="2.5" fill="url(#paint47_linear_21_234)"/>
<rect x="175" y="149" width="5" height="5" rx="2.5" fill="url(#paint48_linear_21_234)"/>
<rect x="175" y="149" width="5" height="5" rx="2.5" fill="url(#paint49_linear_21_234)"/>
<rect x="32" y="175" width="5" height="5" rx="2.5" fill="url(#paint50_linear_21_234)"/>
<rect x="56" y="175" width="5" height="5" rx="2.5" fill="url(#paint51_linear_21_234)"/>
<rect x="80" y="175" width="5" height="5" rx="2.5" fill="url(#paint52_linear_21_234)"/>
<rect x="104" y="175" width="5" height="5" rx="2.5" fill="url(#paint53_linear_21_234)"/>
<rect x="128" y="175" width="5" height="5" rx="2.5" fill="url(#paint54_linear_21_234)"/>
<rect x="152" y="175" width="5" height="5" rx="2.5" fill="url(#paint55_linear_21_234)"/>
<rect x="175" y="175" width="5" height="5" rx="2.5" fill="url(#paint56_linear_21_234)"/>
<rect x="175" y="175" width="5" height="5" rx="2.5" fill="url(#paint57_linear_21_234)"/>
</g>
<g opacity="0.42">
<rect x="45" y="46" width="5" height="5" rx="2.5" fill="url(#paint58_linear_21_234)"/>
<rect x="69" y="46" width="5" height="5" rx="2.5" fill="url(#paint59_linear_21_234)"/>
<rect x="93" y="46" width="5" height="5" rx="2.5" fill="url(#paint60_linear_21_234)"/>
<rect x="117" y="46" width="5" height="5" rx="2.5" fill="url(#paint61_linear_21_234)"/>
<rect x="141" y="46" width="5" height="5" rx="2.5" fill="url(#paint62_linear_21_234)"/>
<rect x="141" y="46" width="5" height="5" rx="2.5" fill="url(#paint63_linear_21_234)"/>
<rect x="165" y="46" width="5" height="5" rx="2.5" fill="url(#paint64_linear_21_234)"/>
<rect x="165" y="46" width="5" height="5" rx="2.5" fill="url(#paint65_linear_21_234)"/>
<rect x="188" y="46" width="5" height="5" rx="2.5" fill="url(#paint66_linear_21_234)"/>
<rect x="188" y="46" width="5" height="5" rx="2.5" fill="url(#paint67_linear_21_234)"/>
<rect x="45" y="71" width="5" height="5" rx="2.5" fill="url(#paint68_linear_21_234)"/>
<rect x="69" y="71" width="5" height="5" rx="2.5" fill="url(#paint69_linear_21_234)"/>
<rect x="93" y="71" width="5" height="5" rx="2.5" fill="url(#paint70_linear_21_234)"/>
<rect x="117" y="71" width="5" height="5" rx="2.5" fill="url(#paint71_linear_21_234)"/>
<rect x="141" y="71" width="5" height="5" rx="2.5" fill="url(#paint72_linear_21_234)"/>
<rect x="165" y="71" width="5" height="5" rx="2.5" fill="url(#paint73_linear_21_234)"/>
<rect x="188" y="71" width="5" height="5" rx="2.5" fill="url(#paint74_linear_21_234)"/>
<rect x="188" y="71" width="5" height="5" rx="2.5" fill="url(#paint75_linear_21_234)"/>
<rect x="45" y="92" width="5" height="5" rx="2.5" fill="url(#paint76_linear_21_234)"/>
<rect x="69" y="92" width="5" height="5" rx="2.5" fill="url(#paint77_linear_21_234)"/>
<rect x="93" y="92" width="5" height="5" rx="2.5" fill="url(#paint78_linear_21_234)"/>
<rect x="117" y="92" width="5" height="5" rx="2.5" fill="url(#paint79_linear_21_234)"/>
<rect x="141" y="92" width="5" height="5" rx="2.5" fill="url(#paint80_linear_21_234)"/>
<rect x="165" y="92" width="5" height="5" rx="2.5" fill="url(#paint81_linear_21_234)"/>
<rect x="188" y="92" width="5" height="5" rx="2.5" fill="url(#paint82_linear_21_234)"/>
<rect x="188" y="92" width="5" height="5" rx="2.5" fill="url(#paint83_linear_21_234)"/>
<rect x="45" y="118" width="5" height="5" rx="2.5" fill="url(#paint84_linear_21_234)"/>
<rect x="69" y="118" width="5" height="5" rx="2.5" fill="url(#paint85_linear_21_234)"/>
<rect x="93" y="118" width="5" height="5" rx="2.5" fill="url(#paint86_linear_21_234)"/>
<rect x="117" y="118" width="5" height="5" rx="2.5" fill="url(#paint87_linear_21_234)"/>
<rect x="141" y="118" width="5" height="5" rx="2.5" fill="url(#paint88_linear_21_234)"/>
<rect x="165" y="118" width="5" height="5" rx="2.5" fill="url(#paint89_linear_21_234)"/>
<rect x="188" y="118" width="5" height="5" rx="2.5" fill="url(#paint90_linear_21_234)"/>
<rect x="188" y="118" width="5" height="5" rx="2.5" fill="url(#paint91_linear_21_234)"/>
<rect x="45" y="141" width="5" height="5" rx="2.5" fill="url(#paint92_linear_21_234)"/>
<rect x="69" y="141" width="5" height="5" rx="2.5" fill="url(#paint93_linear_21_234)"/>
<rect x="93" y="141" width="5" height="5" rx="2.5" fill="url(#paint94_linear_21_234)"/>
<rect x="117" y="141" width="5" height="5" rx="2.5" fill="url(#paint95_linear_21_234)"/>
<rect x="141" y="141" width="5" height="5" rx="2.5" fill="url(#paint96_linear_21_234)"/>
<rect x="165" y="141" width="5" height="5" rx="2.5" fill="url(#paint97_linear_21_234)"/>
<rect x="188" y="141" width="5" height="5" rx="2.5" fill="url(#paint98_linear_21_234)"/>
<rect x="188" y="141" width="5" height="5" rx="2.5" fill="url(#paint99_linear_21_234)"/>
<rect x="45" y="164" width="5" height="5" rx="2.5" fill="url(#paint100_linear_21_234)"/>
<rect x="69" y="164" width="5" height="5" rx="2.5" fill="url(#paint101_linear_21_234)"/>
<rect x="93" y="164" width="5" height="5" rx="2.5" fill="url(#paint102_linear_21_234)"/>
<rect x="117" y="164" width="5" height="5" rx="2.5" fill="url(#paint103_linear_21_234)"/>
<rect x="141" y="164" width="5" height="5" rx="2.5" fill="url(#paint104_linear_21_234)"/>
<rect x="165" y="164" width="5" height="5" rx="2.5" fill="url(#paint105_linear_21_234)"/>
<rect x="188" y="164" width="5" height="5" rx="2.5" fill="url(#paint106_linear_21_234)"/>
<rect x="188" y="164" width="5" height="5" rx="2.5" fill="url(#paint107_linear_21_234)"/>
<rect x="45" y="190" width="5" height="5" rx="2.5" fill="url(#paint108_linear_21_234)"/>
<rect x="69" y="190" width="5" height="5" rx="2.5" fill="url(#paint109_linear_21_234)"/>
<rect x="93" y="190" width="5" height="5" rx="2.5" fill="url(#paint110_linear_21_234)"/>
<rect x="117" y="190" width="5" height="5" rx="2.5" fill="url(#paint111_linear_21_234)"/>
<rect x="141" y="190" width="5" height="5" rx="2.5" fill="url(#paint112_linear_21_234)"/>
<rect x="165" y="190" width="5" height="5" rx="2.5" fill="url(#paint113_linear_21_234)"/>
<rect x="188" y="190" width="5" height="5" rx="2.5" fill="url(#paint114_linear_21_234)"/>
<rect x="188" y="190" width="5" height="5" rx="2.5" fill="url(#paint115_linear_21_234)"/>
</g>
<rect x="27" y="125" width="24" height="24" rx="3" fill="#1E1E1E"/>
<rect x="34.2405" y="145" width="4.33502" height="4.64466" transform="rotate(44.241 34.2405 145)" fill="#1E1E1E"/>
<g clip-path="url(#clip0_21_234)">
<path d="M38.5 134.333C41.6066 134.333 44.125 133.438 44.125 132.333C44.125 131.229 41.6066 130.333 38.5 130.333C35.3934 130.333 32.875 131.229 32.875 132.333C32.875 133.438 35.3934 134.333 38.5 134.333Z" stroke="#5E2EFE" stroke-width="2" stroke-linecap="round" stroke-linejoin="round"/>
<path d="M44.125 137C44.125 138.107 41.625 139 38.5 139C35.375 139 32.875 138.107 32.875 137" stroke="#5E2EFE" stroke-width="2" stroke-linecap="round" stroke-linejoin="round"/>
<path d="M32.875 132.333V141.667C32.875 142.773 35.375 143.667 38.5 143.667C41.625 143.667 44.125 142.773 44.125 141.667V132.333" stroke="#5E2EFE" stroke-width="2" stroke-linecap="round" stroke-linejoin="round"/>
</g>
<rect x="148" y="54" width="24" height="24" rx="3" fill="#1E1E1E"/>
<rect x="155.24" y="74" width="4.33502" height="4.64466" transform="rotate(44.241 155.24 74)" fill="#1E1E1E"/>
<rect x="124" y="151" width="24" height="24" rx="3" fill="#1E1E1E"/>
<rect x="131.24" y="171" width="4.33502" height="4.64466" transform="rotate(44.241 131.24 171)" fill="#1E1E1E"/>
<rect x="51" y="32" width="24" height="24" rx="3" fill="#1E1E1E"/>
<rect x="58.2405" y="52" width="4.33502" height="4.64466" transform="rotate(44.241 58.2405 52)" fill="#1E1E1E"/>
<g clip-path="url(#clip1_21_234)">
<path d="M62.25 38.875H57.875V43.25H62.25V38.875Z" stroke="#F721E9" stroke-width="2" stroke-linecap="round" stroke-linejoin="round"/>
<path d="M69.125 38.875H64.75V43.25H69.125V38.875Z" stroke="#F721E9" stroke-width="2" stroke-linecap="round" stroke-linejoin="round"/>
<path d="M69.125 45.75H64.75V50.125H69.125V45.75Z" stroke="#F721E9" stroke-width="2" stroke-linecap="round" stroke-linejoin="round"/>
<path d="M62.25 45.75H57.875V50.125H62.25V45.75Z" stroke="#F721E9" stroke-width="2" stroke-linecap="round" stroke-linejoin="round"/>
</g>
<g clip-path="url(#clip2_21_234)">
<path d="M161.479 63.9167C160.822 63.9167 160.292 63.3862 160.292 62.7292V58.7708C160.292 58.1137 160.822 57.5833 161.479 57.5833C162.136 57.5833 162.667 58.1137 162.667 58.7708V62.7292C162.667 63.3862 162.136 63.9167 161.479 63.9167Z" stroke="#7411FF" stroke-width="2" stroke-linecap="round" stroke-linejoin="round"/>
<path d="M166.229 63.9167H165.042V62.7292C165.042 62.0721 165.572 61.5417 166.229 61.5417C166.886 61.5417 167.417 62.0721 167.417 62.7292C167.417 63.3863 166.886 63.9167 166.229 63.9167Z" stroke="#7411FF" stroke-width="2" stroke-linecap="round" stroke-linejoin="round"/>
<path d="M157.521 67.0833C158.178 67.0833 158.708 67.6137 158.708 68.2708V72.2292C158.708 72.8862 158.178 73.4167 157.521 73.4167C156.864 73.4167 156.333 72.8862 156.333 72.2292V68.2708C156.333 67.6137 156.864 67.0833 157.521 67.0833Z" stroke="#7411FF" stroke-width="2" stroke-linecap="round" stroke-linejoin="round"/>
<path d="M152.771 67.0833H153.958V68.2708C153.958 68.9279 153.428 69.4583 152.771 69.4583C152.114 69.4583 151.583 68.9279 151.583 68.2708C151.583 67.6137 152.114 67.0833 152.771 67.0833Z" stroke="#7411FF" stroke-width="2" stroke-linecap="round" stroke-linejoin="round"/>
<path d="M161.083 67.4792C161.083 66.8221 161.614 66.2917 162.271 66.2917H166.229C166.886 66.2917 167.417 66.8221 167.417 67.4792C167.417 68.1363 166.886 68.6667 166.229 68.6667H162.271C161.614 68.6667 161.083 68.1363 161.083 67.4792Z" stroke="#7411FF" stroke-width="2" stroke-linecap="round" stroke-linejoin="round"/>
<path d="M162.271 71.0417H161.083V72.2292C161.083 72.8863 161.614 73.4167 162.271 73.4167C162.928 73.4167 163.458 72.8863 163.458 72.2292C163.458 71.5721 162.928 71.0417 162.271 71.0417Z" stroke="#7411FF" stroke-width="2" stroke-linecap="round" stroke-linejoin="round"/>
<path d="M157.917 63.5208C157.917 62.8637 157.386 62.3333 156.729 62.3333H152.771C152.114 62.3333 151.583 62.8637 151.583 63.5208C151.583 64.1779 152.114 64.7083 152.771 64.7083H156.729C157.386 64.7083 157.917 64.1779 157.917 63.5208Z" stroke="#7411FF" stroke-width="2" stroke-linecap="round" stroke-linejoin="round"/>
<path d="M156.729 59.9583H157.917V58.7708C157.917 58.1137 157.386 57.5833 156.729 57.5833C156.072 57.5833 155.542 58.1137 155.542 58.7708C155.542 59.4279 156.072 59.9583 156.729 59.9583Z" stroke="#7411FF" stroke-width="2" stroke-linecap="round" stroke-linejoin="round"/>
</g>
<path d="M132 166.5L135 163.5L132 160.5" stroke="#FE2A90" stroke-width="2" stroke-linecap="round" stroke-linejoin="round"/>
<path d="M136 167.5H140" stroke="#FE2A90" stroke-width="2" stroke-linecap="round" stroke-linejoin="round"/>
<path d="M201.053 47.008C197.567 37.3907 191.216 29.0738 182.855 23.1795L182.487 23.7013C190.741 29.5203 197.011 37.731 200.452 47.2255L201.053 47.008Z" fill="#154BFF"/>
<path d="M23.7718 183.531C28.6352 192.53 36.1419 199.822 45.2792 204.421L45.5662 203.851C36.5456 199.31 29.1347 192.112 24.3334 183.228L23.7718 183.531Z" fill="#FF15FF"/>
<path d="M182.851 20.8234L179.508 22.1927L180.877 25.5358" stroke="#154BFF" stroke-width="2" stroke-linecap="round" stroke-linejoin="round"/>
<path d="M46.2043 207.196L49.1493 205.103L47.0569 202.158" stroke="#FF15FF" stroke-width="2" stroke-linecap="round" stroke-linejoin="round"/>
<defs>
<linearGradient id="paint0_linear_21_234" x1="34.5" y1="31" x2="34.5" y2="36" gradientUnits="userSpaceOnUse">
<stop stop-color="#116CFF"/>
<stop offset="1" stop-color="#0A4199" stop-opacity="0.1"/>
</linearGradient>
<linearGradient id="paint1_linear_21_234" x1="58.5" y1="31" x2="58.5" y2="36" gradientUnits="userSpaceOnUse">
<stop stop-color="#116CFF"/>
<stop offset="1" stop-color="#0A4199" stop-opacity="0.1"/>
</linearGradient>
<linearGradient id="paint2_linear_21_234" x1="82.5" y1="31" x2="82.5" y2="36" gradientUnits="userSpaceOnUse">
<stop stop-color="#116CFF"/>
<stop offset="1" stop-color="#0A4199" stop-opacity="0.1"/>
</linearGradient>
<linearGradient id="paint3_linear_21_234" x1="106.5" y1="31" x2="106.5" y2="36" gradientUnits="userSpaceOnUse">
<stop stop-color="#116CFF"/>
<stop offset="1" stop-color="#0A4199" stop-opacity="0.1"/>
</linearGradient>
<linearGradient id="paint4_linear_21_234" x1="130.5" y1="31" x2="130.5" y2="36" gradientUnits="userSpaceOnUse">
<stop stop-color="#116CFF"/>
<stop offset="1" stop-color="#0A4199" stop-opacity="0.1"/>
</linearGradient>
<linearGradient id="paint5_linear_21_234" x1="130.5" y1="31" x2="130.5" y2="36" gradientUnits="userSpaceOnUse">
<stop stop-color="#116CFF"/>
<stop offset="1" stop-color="#0A4199" stop-opacity="0.1"/>
</linearGradient>
<linearGradient id="paint6_linear_21_234" x1="154.5" y1="31" x2="154.5" y2="36" gradientUnits="userSpaceOnUse">
<stop stop-color="#116CFF"/>
<stop offset="1" stop-color="#0A4199" stop-opacity="0.1"/>
</linearGradient>
<linearGradient id="paint7_linear_21_234" x1="154.5" y1="31" x2="154.5" y2="36" gradientUnits="userSpaceOnUse">
<stop stop-color="#116CFF"/>
<stop offset="1" stop-color="#0A4199" stop-opacity="0.1"/>
</linearGradient>
<linearGradient id="paint8_linear_21_234" x1="177.5" y1="31" x2="177.5" y2="36" gradientUnits="userSpaceOnUse">
<stop stop-color="#116CFF"/>
<stop offset="1" stop-color="#0A4199" stop-opacity="0.1"/>
</linearGradient>
<linearGradient id="paint9_linear_21_234" x1="177.5" y1="31" x2="177.5" y2="36" gradientUnits="userSpaceOnUse">
<stop stop-color="#116CFF"/>
<stop offset="1" stop-color="#0A4199" stop-opacity="0.1"/>
</linearGradient>
<linearGradient id="paint10_linear_21_234" x1="34.5" y1="56" x2="34.5" y2="61" gradientUnits="userSpaceOnUse">
<stop stop-color="#116CFF"/>
<stop offset="1" stop-color="#0A4199" stop-opacity="0.1"/>
</linearGradient>
<linearGradient id="paint11_linear_21_234" x1="58.5" y1="56" x2="58.5" y2="61" gradientUnits="userSpaceOnUse">
<stop stop-color="#116CFF"/>
<stop offset="1" stop-color="#0A4199" stop-opacity="0.1"/>
</linearGradient>
<linearGradient id="paint12_linear_21_234" x1="82.5" y1="56" x2="82.5" y2="61" gradientUnits="userSpaceOnUse">
<stop stop-color="#116CFF"/>
<stop offset="1" stop-color="#0A4199" stop-opacity="0.1"/>
</linearGradient>
<linearGradient id="paint13_linear_21_234" x1="106.5" y1="56" x2="106.5" y2="61" gradientUnits="userSpaceOnUse">
<stop stop-color="#116CFF"/>
<stop offset="1" stop-color="#0A4199" stop-opacity="0.1"/>
</linearGradient>
<linearGradient id="paint14_linear_21_234" x1="130.5" y1="56" x2="130.5" y2="61" gradientUnits="userSpaceOnUse">
<stop stop-color="#116CFF"/>
<stop offset="1" stop-color="#0A4199" stop-opacity="0.1"/>
</linearGradient>
<linearGradient id="paint15_linear_21_234" x1="154.5" y1="56" x2="154.5" y2="61" gradientUnits="userSpaceOnUse">
<stop stop-color="#116CFF"/>
<stop offset="1" stop-color="#0A4199" stop-opacity="0.1"/>
</linearGradient>
<linearGradient id="paint16_linear_21_234" x1="177.5" y1="56" x2="177.5" y2="61" gradientUnits="userSpaceOnUse">
<stop stop-color="#116CFF"/>
<stop offset="1" stop-color="#0A4199" stop-opacity="0.1"/>
</linearGradient>
<linearGradient id="paint17_linear_21_234" x1="177.5" y1="56" x2="177.5" y2="61" gradientUnits="userSpaceOnUse">
<stop stop-color="#116CFF"/>
<stop offset="1" stop-color="#0A4199" stop-opacity="0.1"/>
</linearGradient>
<linearGradient id="paint18_linear_21_234" x1="34.5" y1="77" x2="34.5" y2="82" gradientUnits="userSpaceOnUse">
<stop stop-color="#116CFF"/>
<stop offset="1" stop-color="#0A4199" stop-opacity="0.1"/>
</linearGradient>
<linearGradient id="paint19_linear_21_234" x1="58.5" y1="77" x2="58.5" y2="82" gradientUnits="userSpaceOnUse">
<stop stop-color="#116CFF"/>
<stop offset="1" stop-color="#0A4199" stop-opacity="0.1"/>
</linearGradient>
<linearGradient id="paint20_linear_21_234" x1="82.5" y1="77" x2="82.5" y2="82" gradientUnits="userSpaceOnUse">
<stop stop-color="#116CFF"/>
<stop offset="1" stop-color="#0A4199" stop-opacity="0.1"/>
</linearGradient>
<linearGradient id="paint21_linear_21_234" x1="106.5" y1="77" x2="106.5" y2="82" gradientUnits="userSpaceOnUse">
<stop stop-color="#116CFF"/>
<stop offset="1" stop-color="#0A4199" stop-opacity="0.1"/>
</linearGradient>
<linearGradient id="paint22_linear_21_234" x1="130.5" y1="77" x2="130.5" y2="82" gradientUnits="userSpaceOnUse">
<stop stop-color="#116CFF"/>
<stop offset="1" stop-color="#0A4199" stop-opacity="0.1"/>
</linearGradient>
<linearGradient id="paint23_linear_21_234" x1="154.5" y1="77" x2="154.5" y2="82" gradientUnits="userSpaceOnUse">
<stop stop-color="#116CFF"/>
<stop offset="1" stop-color="#0A4199" stop-opacity="0.1"/>
</linearGradient>
<linearGradient id="paint24_linear_21_234" x1="177.5" y1="77" x2="177.5" y2="82" gradientUnits="userSpaceOnUse">
<stop stop-color="#116CFF"/>
<stop offset="1" stop-color="#0A4199" stop-opacity="0.1"/>
</linearGradient>
<linearGradient id="paint25_linear_21_234" x1="177.5" y1="77" x2="177.5" y2="82" gradientUnits="userSpaceOnUse">
<stop stop-color="#116CFF"/>
<stop offset="1" stop-color="#0A4199" stop-opacity="0.1"/>
</linearGradient>
<linearGradient id="paint26_linear_21_234" x1="34.5" y1="103" x2="34.5" y2="108" gradientUnits="userSpaceOnUse">
<stop stop-color="#116CFF"/>
<stop offset="1" stop-color="#0A4199" stop-opacity="0.1"/>
</linearGradient>
<linearGradient id="paint27_linear_21_234" x1="58.5" y1="103" x2="58.5" y2="108" gradientUnits="userSpaceOnUse">
<stop stop-color="#116CFF"/>
<stop offset="1" stop-color="#0A4199" stop-opacity="0.1"/>
</linearGradient>
<linearGradient id="paint28_linear_21_234" x1="82.5" y1="103" x2="82.5" y2="108" gradientUnits="userSpaceOnUse">
<stop stop-color="#116CFF"/>
<stop offset="1" stop-color="#0A4199" stop-opacity="0.1"/>
</linearGradient>
<linearGradient id="paint29_linear_21_234" x1="106.5" y1="103" x2="106.5" y2="108" gradientUnits="userSpaceOnUse">
<stop stop-color="#116CFF"/>
<stop offset="1" stop-color="#0A4199" stop-opacity="0.1"/>
</linearGradient>
<linearGradient id="paint30_linear_21_234" x1="130.5" y1="103" x2="130.5" y2="108" gradientUnits="userSpaceOnUse">
<stop stop-color="#116CFF"/>
<stop offset="1" stop-color="#0A4199" stop-opacity="0.1"/>
</linearGradient>
<linearGradient id="paint31_linear_21_234" x1="154.5" y1="103" x2="154.5" y2="108" gradientUnits="userSpaceOnUse">
<stop stop-color="#116CFF"/>
<stop offset="1" stop-color="#0A4199" stop-opacity="0.1"/>
</linearGradient>
<linearGradient id="paint32_linear_21_234" x1="177.5" y1="103" x2="177.5" y2="108" gradientUnits="userSpaceOnUse">
<stop stop-color="#116CFF"/>
<stop offset="1" stop-color="#0A4199" stop-opacity="0.1"/>
</linearGradient>
<linearGradient id="paint33_linear_21_234" x1="177.5" y1="103" x2="177.5" y2="108" gradientUnits="userSpaceOnUse">
<stop stop-color="#116CFF"/>
<stop offset="1" stop-color="#0A4199" stop-opacity="0.1"/>
</linearGradient>
<linearGradient id="paint34_linear_21_234" x1="34.5" y1="126" x2="34.5" y2="131" gradientUnits="userSpaceOnUse">
<stop stop-color="#116CFF"/>
<stop offset="1" stop-color="#0A4199" stop-opacity="0.1"/>
</linearGradient>
<linearGradient id="paint35_linear_21_234" x1="58.5" y1="126" x2="58.5" y2="131" gradientUnits="userSpaceOnUse">
<stop stop-color="#116CFF"/>
<stop offset="1" stop-color="#0A4199" stop-opacity="0.1"/>
</linearGradient>
<linearGradient id="paint36_linear_21_234" x1="82.5" y1="126" x2="82.5" y2="131" gradientUnits="userSpaceOnUse">
<stop stop-color="#116CFF"/>
<stop offset="1" stop-color="#0A4199" stop-opacity="0.1"/>
</linearGradient>
<linearGradient id="paint37_linear_21_234" x1="106.5" y1="126" x2="106.5" y2="131" gradientUnits="userSpaceOnUse">
<stop stop-color="#116CFF"/>
<stop offset="1" stop-color="#0A4199" stop-opacity="0.1"/>
</linearGradient>
<linearGradient id="paint38_linear_21_234" x1="130.5" y1="126" x2="130.5" y2="131" gradientUnits="userSpaceOnUse">
<stop stop-color="#116CFF"/>
<stop offset="1" stop-color="#0A4199" stop-opacity="0.1"/>
</linearGradient>
<linearGradient id="paint39_linear_21_234" x1="154.5" y1="126" x2="154.5" y2="131" gradientUnits="userSpaceOnUse">
<stop stop-color="#116CFF"/>
<stop offset="1" stop-color="#0A4199" stop-opacity="0.1"/>
</linearGradient>
<linearGradient id="paint40_linear_21_234" x1="177.5" y1="126" x2="177.5" y2="131" gradientUnits="userSpaceOnUse">
<stop stop-color="#116CFF"/>
<stop offset="1" stop-color="#0A4199" stop-opacity="0.1"/>
</linearGradient>
<linearGradient id="paint41_linear_21_234" x1="177.5" y1="126" x2="177.5" y2="131" gradientUnits="userSpaceOnUse">
<stop stop-color="#116CFF"/>
<stop offset="1" stop-color="#0A4199" stop-opacity="0.1"/>
</linearGradient>
<linearGradient id="paint42_linear_21_234" x1="34.5" y1="149" x2="34.5" y2="154" gradientUnits="userSpaceOnUse">
<stop stop-color="#116CFF"/>
<stop offset="1" stop-color="#0A4199" stop-opacity="0.1"/>
</linearGradient>
<linearGradient id="paint43_linear_21_234" x1="58.5" y1="149" x2="58.5" y2="154" gradientUnits="userSpaceOnUse">
<stop stop-color="#116CFF"/>
<stop offset="1" stop-color="#0A4199" stop-opacity="0.1"/>
</linearGradient>
<linearGradient id="paint44_linear_21_234" x1="82.5" y1="149" x2="82.5" y2="154" gradientUnits="userSpaceOnUse">
<stop stop-color="#116CFF"/>
<stop offset="1" stop-color="#0A4199" stop-opacity="0.1"/>
</linearGradient>
<linearGradient id="paint45_linear_21_234" x1="106.5" y1="149" x2="106.5" y2="154" gradientUnits="userSpaceOnUse">
<stop stop-color="#116CFF"/>
<stop offset="1" stop-color="#0A4199" stop-opacity="0.1"/>
</linearGradient>
<linearGradient id="paint46_linear_21_234" x1="130.5" y1="149" x2="130.5" y2="154" gradientUnits="userSpaceOnUse">
<stop stop-color="#116CFF"/>
<stop offset="1" stop-color="#0A4199" stop-opacity="0.1"/>
</linearGradient>
<linearGradient id="paint47_linear_21_234" x1="154.5" y1="149" x2="154.5" y2="154" gradientUnits="userSpaceOnUse">
<stop stop-color="#116CFF"/>
<stop offset="1" stop-color="#0A4199" stop-opacity="0.1"/>
</linearGradient>
<linearGradient id="paint48_linear_21_234" x1="177.5" y1="149" x2="177.5" y2="154" gradientUnits="userSpaceOnUse">
<stop stop-color="#116CFF"/>
<stop offset="1" stop-color="#0A4199" stop-opacity="0.1"/>
</linearGradient>
<linearGradient id="paint49_linear_21_234" x1="177.5" y1="149" x2="177.5" y2="154" gradientUnits="userSpaceOnUse">
<stop stop-color="#116CFF"/>
<stop offset="1" stop-color="#0A4199" stop-opacity="0.1"/>
</linearGradient>
<linearGradient id="paint50_linear_21_234" x1="34.5" y1="175" x2="34.5" y2="180" gradientUnits="userSpaceOnUse">
<stop stop-color="#116CFF"/>
<stop offset="1" stop-color="#0A4199" stop-opacity="0.1"/>
</linearGradient>
<linearGradient id="paint51_linear_21_234" x1="58.5" y1="175" x2="58.5" y2="180" gradientUnits="userSpaceOnUse">
<stop stop-color="#116CFF"/>
<stop offset="1" stop-color="#0A4199" stop-opacity="0.1"/>
</linearGradient>
<linearGradient id="paint52_linear_21_234" x1="82.5" y1="175" x2="82.5" y2="180" gradientUnits="userSpaceOnUse">
<stop stop-color="#116CFF"/>
<stop offset="1" stop-color="#0A4199" stop-opacity="0.1"/>
</linearGradient>
<linearGradient id="paint53_linear_21_234" x1="106.5" y1="175" x2="106.5" y2="180" gradientUnits="userSpaceOnUse">
<stop stop-color="#116CFF"/>
<stop offset="1" stop-color="#0A4199" stop-opacity="0.1"/>
</linearGradient>
<linearGradient id="paint54_linear_21_234" x1="130.5" y1="175" x2="130.5" y2="180" gradientUnits="userSpaceOnUse">
<stop stop-color="#116CFF"/>
<stop offset="1" stop-color="#0A4199" stop-opacity="0.1"/>
</linearGradient>
<linearGradient id="paint55_linear_21_234" x1="154.5" y1="175" x2="154.5" y2="180" gradientUnits="userSpaceOnUse">
<stop stop-color="#116CFF"/>
<stop offset="1" stop-color="#0A4199" stop-opacity="0.1"/>
</linearGradient>
<linearGradient id="paint56_linear_21_234" x1="177.5" y1="175" x2="177.5" y2="180" gradientUnits="userSpaceOnUse">
<stop stop-color="#116CFF"/>
<stop offset="1" stop-color="#0A4199" stop-opacity="0.1"/>
</linearGradient>
<linearGradient id="paint57_linear_21_234" x1="177.5" y1="175" x2="177.5" y2="180" gradientUnits="userSpaceOnUse">
<stop stop-color="#116CFF"/>
<stop offset="1" stop-color="#0A4199" stop-opacity="0.1"/>
</linearGradient>
<linearGradient id="paint58_linear_21_234" x1="47.5" y1="46" x2="47.5" y2="51" gradientUnits="userSpaceOnUse">
<stop stop-color="#FC2C82"/>
<stop offset="1" stop-color="#961A4E" stop-opacity="0.1"/>
</linearGradient>
<linearGradient id="paint59_linear_21_234" x1="71.5" y1="46" x2="71.5" y2="51" gradientUnits="userSpaceOnUse">
<stop stop-color="#FC2C82"/>
<stop offset="1" stop-color="#961A4E" stop-opacity="0.1"/>
</linearGradient>
<linearGradient id="paint60_linear_21_234" x1="95.5" y1="46" x2="95.5" y2="51" gradientUnits="userSpaceOnUse">
<stop stop-color="#FC2C82"/>
<stop offset="1" stop-color="#961A4E" stop-opacity="0.1"/>
</linearGradient>
<linearGradient id="paint61_linear_21_234" x1="119.5" y1="46" x2="119.5" y2="51" gradientUnits="userSpaceOnUse">
<stop stop-color="#FC2C82"/>
<stop offset="1" stop-color="#961A4E" stop-opacity="0.1"/>
</linearGradient>
<linearGradient id="paint62_linear_21_234" x1="143.5" y1="46" x2="143.5" y2="51" gradientUnits="userSpaceOnUse">
<stop stop-color="#FC2C82"/>
<stop offset="1" stop-color="#961A4E" stop-opacity="0.1"/>
</linearGradient>
<linearGradient id="paint63_linear_21_234" x1="143.5" y1="46" x2="143.5" y2="51" gradientUnits="userSpaceOnUse">
<stop stop-color="#FC2C82"/>
<stop offset="1" stop-color="#961A4E" stop-opacity="0.1"/>
</linearGradient>
<linearGradient id="paint64_linear_21_234" x1="167.5" y1="46" x2="167.5" y2="51" gradientUnits="userSpaceOnUse">
<stop stop-color="#FC2C82"/>
<stop offset="1" stop-color="#961A4E" stop-opacity="0.1"/>
</linearGradient>
<linearGradient id="paint65_linear_21_234" x1="167.5" y1="46" x2="167.5" y2="51" gradientUnits="userSpaceOnUse">
<stop stop-color="#FC2C82"/>
<stop offset="1" stop-color="#961A4E" stop-opacity="0.1"/>
</linearGradient>
<linearGradient id="paint66_linear_21_234" x1="190.5" y1="46" x2="190.5" y2="51" gradientUnits="userSpaceOnUse">
<stop stop-color="#FC2C82"/>
<stop offset="1" stop-color="#961A4E" stop-opacity="0.1"/>
</linearGradient>
<linearGradient id="paint67_linear_21_234" x1="190.5" y1="46" x2="190.5" y2="51" gradientUnits="userSpaceOnUse">
<stop stop-color="#FC2C82"/>
<stop offset="1" stop-color="#961A4E" stop-opacity="0.1"/>
</linearGradient>
<linearGradient id="paint68_linear_21_234" x1="47.5" y1="71" x2="47.5" y2="76" gradientUnits="userSpaceOnUse">
<stop stop-color="#FC2C82"/>
<stop offset="1" stop-color="#961A4E" stop-opacity="0.1"/>
</linearGradient>
<linearGradient id="paint69_linear_21_234" x1="71.5" y1="71" x2="71.5" y2="76" gradientUnits="userSpaceOnUse">
<stop stop-color="#FC2C82"/>
<stop offset="1" stop-color="#961A4E" stop-opacity="0.1"/>
</linearGradient>
<linearGradient id="paint70_linear_21_234" x1="95.5" y1="71" x2="95.5" y2="76" gradientUnits="userSpaceOnUse">
<stop stop-color="#FC2C82"/>
<stop offset="1" stop-color="#961A4E" stop-opacity="0.1"/>
</linearGradient>
<linearGradient id="paint71_linear_21_234" x1="119.5" y1="71" x2="119.5" y2="76" gradientUnits="userSpaceOnUse">
<stop stop-color="#FC2C82"/>
<stop offset="1" stop-color="#961A4E" stop-opacity="0.1"/>
</linearGradient>
<linearGradient id="paint72_linear_21_234" x1="143.5" y1="71" x2="143.5" y2="76" gradientUnits="userSpaceOnUse">
<stop stop-color="#FC2C82"/>
<stop offset="1" stop-color="#961A4E" stop-opacity="0.1"/>
</linearGradient>
<linearGradient id="paint73_linear_21_234" x1="167.5" y1="71" x2="167.5" y2="76" gradientUnits="userSpaceOnUse">
<stop stop-color="#FC2C82"/>
<stop offset="1" stop-color="#961A4E" stop-opacity="0.1"/>
</linearGradient>
<linearGradient id="paint74_linear_21_234" x1="190.5" y1="71" x2="190.5" y2="76" gradientUnits="userSpaceOnUse">
<stop stop-color="#FC2C82"/>
<stop offset="1" stop-color="#961A4E" stop-opacity="0.1"/>
</linearGradient>
<linearGradient id="paint75_linear_21_234" x1="190.5" y1="71" x2="190.5" y2="76" gradientUnits="userSpaceOnUse">
<stop stop-color="#FC2C82"/>
<stop offset="1" stop-color="#961A4E" stop-opacity="0.1"/>
</linearGradient>
<linearGradient id="paint76_linear_21_234" x1="47.5" y1="92" x2="47.5" y2="97" gradientUnits="userSpaceOnUse">
<stop stop-color="#FC2C82"/>
<stop offset="1" stop-color="#961A4E" stop-opacity="0.1"/>
</linearGradient>
<linearGradient id="paint77_linear_21_234" x1="71.5" y1="92" x2="71.5" y2="97" gradientUnits="userSpaceOnUse">
<stop stop-color="#FC2C82"/>
<stop offset="1" stop-color="#961A4E" stop-opacity="0.1"/>
</linearGradient>
<linearGradient id="paint78_linear_21_234" x1="95.5" y1="92" x2="95.5" y2="97" gradientUnits="userSpaceOnUse">
<stop stop-color="#FC2C82"/>
<stop offset="1" stop-color="#961A4E" stop-opacity="0.1"/>
</linearGradient>
<linearGradient id="paint79_linear_21_234" x1="119.5" y1="92" x2="119.5" y2="97" gradientUnits="userSpaceOnUse">
<stop stop-color="#FC2C82"/>
<stop offset="1" stop-color="#961A4E" stop-opacity="0.1"/>
</linearGradient>
<linearGradient id="paint80_linear_21_234" x1="143.5" y1="92" x2="143.5" y2="97" gradientUnits="userSpaceOnUse">
<stop stop-color="#FC2C82"/>
<stop offset="1" stop-color="#961A4E" stop-opacity="0.1"/>
</linearGradient>
<linearGradient id="paint81_linear_21_234" x1="167.5" y1="92" x2="167.5" y2="97" gradientUnits="userSpaceOnUse">
<stop stop-color="#FC2C82"/>
<stop offset="1" stop-color="#961A4E" stop-opacity="0.1"/>
</linearGradient>
<linearGradient id="paint82_linear_21_234" x1="190.5" y1="92" x2="190.5" y2="97" gradientUnits="userSpaceOnUse">
<stop stop-color="#FC2C82"/>
<stop offset="1" stop-color="#961A4E" stop-opacity="0.1"/>
</linearGradient>
<linearGradient id="paint83_linear_21_234" x1="190.5" y1="92" x2="190.5" y2="97" gradientUnits="userSpaceOnUse">
<stop stop-color="#FC2C82"/>
<stop offset="1" stop-color="#961A4E" stop-opacity="0.1"/>
</linearGradient>
<linearGradient id="paint84_linear_21_234" x1="47.5" y1="118" x2="47.5" y2="123" gradientUnits="userSpaceOnUse">
<stop stop-color="#FC2C82"/>
<stop offset="1" stop-color="#961A4E" stop-opacity="0.1"/>
</linearGradient>
<linearGradient id="paint85_linear_21_234" x1="71.5" y1="118" x2="71.5" y2="123" gradientUnits="userSpaceOnUse">
<stop stop-color="#FC2C82"/>
<stop offset="1" stop-color="#961A4E" stop-opacity="0.1"/>
</linearGradient>
<linearGradient id="paint86_linear_21_234" x1="95.5" y1="118" x2="95.5" y2="123" gradientUnits="userSpaceOnUse">
<stop stop-color="#FC2C82"/>
<stop offset="1" stop-color="#961A4E" stop-opacity="0.1"/>
</linearGradient>
<linearGradient id="paint87_linear_21_234" x1="119.5" y1="118" x2="119.5" y2="123" gradientUnits="userSpaceOnUse">
<stop stop-color="#FC2C82"/>
<stop offset="1" stop-color="#961A4E" stop-opacity="0.1"/>
</linearGradient>
<linearGradient id="paint88_linear_21_234" x1="143.5" y1="118" x2="143.5" y2="123" gradientUnits="userSpaceOnUse">
<stop stop-color="#FC2C82"/>
<stop offset="1" stop-color="#961A4E" stop-opacity="0.1"/>
</linearGradient>
<linearGradient id="paint89_linear_21_234" x1="167.5" y1="118" x2="167.5" y2="123" gradientUnits="userSpaceOnUse">
<stop stop-color="#FC2C82"/>
<stop offset="1" stop-color="#961A4E" stop-opacity="0.1"/>
</linearGradient>
<linearGradient id="paint90_linear_21_234" x1="190.5" y1="118" x2="190.5" y2="123" gradientUnits="userSpaceOnUse">
<stop stop-color="#FC2C82"/>
<stop offset="1" stop-color="#961A4E" stop-opacity="0.1"/>
</linearGradient>
<linearGradient id="paint91_linear_21_234" x1="190.5" y1="118" x2="190.5" y2="123" gradientUnits="userSpaceOnUse">
<stop stop-color="#FC2C82"/>
<stop offset="1" stop-color="#961A4E" stop-opacity="0.1"/>
</linearGradient>
<linearGradient id="paint92_linear_21_234" x1="47.5" y1="141" x2="47.5" y2="146" gradientUnits="userSpaceOnUse">
<stop stop-color="#FC2C82"/>
<stop offset="1" stop-color="#961A4E" stop-opacity="0.1"/>
</linearGradient>
<linearGradient id="paint93_linear_21_234" x1="71.5" y1="141" x2="71.5" y2="146" gradientUnits="userSpaceOnUse">
<stop stop-color="#FC2C82"/>
<stop offset="1" stop-color="#961A4E" stop-opacity="0.1"/>
</linearGradient>
<linearGradient id="paint94_linear_21_234" x1="95.5" y1="141" x2="95.5" y2="146" gradientUnits="userSpaceOnUse">
<stop stop-color="#FC2C82"/>
<stop offset="1" stop-color="#961A4E" stop-opacity="0.1"/>
</linearGradient>
<linearGradient id="paint95_linear_21_234" x1="119.5" y1="141" x2="119.5" y2="146" gradientUnits="userSpaceOnUse">
<stop stop-color="#FC2C82"/>
<stop offset="1" stop-color="#961A4E" stop-opacity="0.1"/>
</linearGradient>
<linearGradient id="paint96_linear_21_234" x1="143.5" y1="141" x2="143.5" y2="146" gradientUnits="userSpaceOnUse">
<stop stop-color="#FC2C82"/>
<stop offset="1" stop-color="#961A4E" stop-opacity="0.1"/>
</linearGradient>
<linearGradient id="paint97_linear_21_234" x1="167.5" y1="141" x2="167.5" y2="146" gradientUnits="userSpaceOnUse">
<stop stop-color="#FC2C82"/>
<stop offset="1" stop-color="#961A4E" stop-opacity="0.1"/>
</linearGradient>
<linearGradient id="paint98_linear_21_234" x1="190.5" y1="141" x2="190.5" y2="146" gradientUnits="userSpaceOnUse">
<stop stop-color="#FC2C82"/>
<stop offset="1" stop-color="#961A4E" stop-opacity="0.1"/>
</linearGradient>
<linearGradient id="paint99_linear_21_234" x1="190.5" y1="141" x2="190.5" y2="146" gradientUnits="userSpaceOnUse">
<stop stop-color="#FC2C82"/>
<stop offset="1" stop-color="#961A4E" stop-opacity="0.1"/>
</linearGradient>
<linearGradient id="paint100_linear_21_234" x1="47.5" y1="164" x2="47.5" y2="169" gradientUnits="userSpaceOnUse">
<stop stop-color="#FC2C82"/>
<stop offset="1" stop-color="#961A4E" stop-opacity="0.1"/>
</linearGradient>
<linearGradient id="paint101_linear_21_234" x1="71.5" y1="164" x2="71.5" y2="169" gradientUnits="userSpaceOnUse">
<stop stop-color="#FC2C82"/>
<stop offset="1" stop-color="#961A4E" stop-opacity="0.1"/>
</linearGradient>
<linearGradient id="paint102_linear_21_234" x1="95.5" y1="164" x2="95.5" y2="169" gradientUnits="userSpaceOnUse">
<stop stop-color="#FC2C82"/>
<stop offset="1" stop-color="#961A4E" stop-opacity="0.1"/>
</linearGradient>
<linearGradient id="paint103_linear_21_234" x1="119.5" y1="164" x2="119.5" y2="169" gradientUnits="userSpaceOnUse">
<stop stop-color="#FC2C82"/>
<stop offset="1" stop-color="#961A4E" stop-opacity="0.1"/>
</linearGradient>
<linearGradient id="paint104_linear_21_234" x1="143.5" y1="164" x2="143.5" y2="169" gradientUnits="userSpaceOnUse">
<stop stop-color="#FC2C82"/>
<stop offset="1" stop-color="#961A4E" stop-opacity="0.1"/>
</linearGradient>
<linearGradient id="paint105_linear_21_234" x1="167.5" y1="164" x2="167.5" y2="169" gradientUnits="userSpaceOnUse">
<stop stop-color="#FC2C82"/>
<stop offset="1" stop-color="#961A4E" stop-opacity="0.1"/>
</linearGradient>
<linearGradient id="paint106_linear_21_234" x1="190.5" y1="164" x2="190.5" y2="169" gradientUnits="userSpaceOnUse">
<stop stop-color="#FC2C82"/>
<stop offset="1" stop-color="#961A4E" stop-opacity="0.1"/>
</linearGradient>
<linearGradient id="paint107_linear_21_234" x1="190.5" y1="164" x2="190.5" y2="169" gradientUnits="userSpaceOnUse">
<stop stop-color="#FC2C82"/>
<stop offset="1" stop-color="#961A4E" stop-opacity="0.1"/>
</linearGradient>
<linearGradient id="paint108_linear_21_234" x1="47.5" y1="190" x2="47.5" y2="195" gradientUnits="userSpaceOnUse">
<stop stop-color="#FC2C82"/>
<stop offset="1" stop-color="#961A4E" stop-opacity="0.1"/>
</linearGradient>
<linearGradient id="paint109_linear_21_234" x1="71.5" y1="190" x2="71.5" y2="195" gradientUnits="userSpaceOnUse">
<stop stop-color="#FC2C82"/>
<stop offset="1" stop-color="#961A4E" stop-opacity="0.1"/>
</linearGradient>
<linearGradient id="paint110_linear_21_234" x1="95.5" y1="190" x2="95.5" y2="195" gradientUnits="userSpaceOnUse">
<stop stop-color="#FC2C82"/>
<stop offset="1" stop-color="#961A4E" stop-opacity="0.1"/>
</linearGradient>
<linearGradient id="paint111_linear_21_234" x1="119.5" y1="190" x2="119.5" y2="195" gradientUnits="userSpaceOnUse">
<stop stop-color="#FC2C82"/>
<stop offset="1" stop-color="#961A4E" stop-opacity="0.1"/>
</linearGradient>
<linearGradient id="paint112_linear_21_234" x1="143.5" y1="190" x2="143.5" y2="195" gradientUnits="userSpaceOnUse">
<stop stop-color="#FC2C82"/>
<stop offset="1" stop-color="#961A4E" stop-opacity="0.1"/>
</linearGradient>
<linearGradient id="paint113_linear_21_234" x1="167.5" y1="190" x2="167.5" y2="195" gradientUnits="userSpaceOnUse">
<stop stop-color="#FC2C82"/>
<stop offset="1" stop-color="#961A4E" stop-opacity="0.1"/>
</linearGradient>
<linearGradient id="paint114_linear_21_234" x1="190.5" y1="190" x2="190.5" y2="195" gradientUnits="userSpaceOnUse">
<stop stop-color="#FC2C82"/>
<stop offset="1" stop-color="#961A4E" stop-opacity="0.1"/>
</linearGradient>
<linearGradient id="paint115_linear_21_234" x1="190.5" y1="190" x2="190.5" y2="195" gradientUnits="userSpaceOnUse">
<stop stop-color="#FC2C82"/>
<stop offset="1" stop-color="#961A4E" stop-opacity="0.1"/>
</linearGradient>
<clipPath id="clip0_21_234">
<rect width="15" height="16" fill="white" transform="translate(31 129)"/>
</clipPath>
<clipPath id="clip1_21_234">
<rect width="15" height="15" fill="white" transform="translate(56 37)"/>
</clipPath>
<clipPath id="clip2_21_234">
<rect width="19" height="19" fill="white" transform="translate(150 56)"/>
</clipPath>
</defs>
</svg>
